<?xml version="1.0" encoding="UTF-8"?>
<!DOCTYPE svg PUBLIC "-//W3C//DTD SVG 1.1//EN" "http://www.w3.org/Graphics/SVG/1.1/DTD/svg11.dtd">
<svg xmlns="http://www.w3.org/2000/svg" version="1.1" width="48px" height="48px" style="shape-rendering:geometricPrecision; text-rendering:geometricPrecision; image-rendering:optimizeQuality; fill-rule:evenodd; clip-rule:evenodd" xmlns:xlink="http://www.w3.org/1999/xlink">
<g><path style="opacity:0.781" fill="#d50000" d="M 22.5,0.5 C 24.1207,0.786898 25.1207,1.7869 25.5,3.5C 24.3791,9.11383 24.2124,14.7805 25,20.5C 27.8333,17.6667 30.6667,14.8333 33.5,12C 31.0082,9.1882 29.5082,6.02153 29,2.5C 31.6255,5.59352 34.1255,8.76019 36.5,12C 33.5489,15.9541 30.2156,19.6207 26.5,23C 30.0158,26.3486 33.3492,29.8486 36.5,33.5C 32.5,38.1667 28.1667,42.5 23.5,46.5C 18.8333,42.5 14.5,38.1667 10.5,33.5C 13.6508,29.8486 16.9842,26.3486 20.5,23C 17.3333,19.8333 14.1667,16.6667 11,13.5C 10.3333,12.5 10.3333,11.5 11,10.5C 19.5964,-0.46537 20.4297,0.0346298 13.5,12C 16.3333,14.8333 19.1667,17.6667 22,20.5C 22.316,13.7199 22.4827,7.05328 22.5,0.5 Z M 21.5,26.5 C 22.6484,30.9811 22.8151,35.6478 22,40.5C 19.6496,38.3171 17.483,35.9837 15.5,33.5C 17.5227,31.1472 19.5227,28.8138 21.5,26.5 Z M 24.5,26.5 C 27.1456,28.4789 29.4789,30.8122 31.5,33.5C 29.517,35.9837 27.3504,38.3171 25,40.5C 24.5008,35.8452 24.3342,31.1785 24.5,26.5 Z"/></g>
</svg>
