<?xml version="1.0" encoding="UTF-8"?>
<svg xmlns="http://www.w3.org/2000/svg" version="1.1" width="50px" height="50px" style="shape-rendering:geometricPrecision; text-rendering:geometricPrecision; image-rendering:optimizeQuality; fill-rule:evenodd; clip-rule:evenodd" xmlns:xlink="http://www.w3.org/1999/xlink">
<g><path style="opacity:0.938" fill="#fefffe" d="M 7.5,1.5 C 19.5,1.5 31.5,1.5 43.5,1.5C 43.5,13.8333 43.5,26.1667 43.5,38.5C 32.8281,38.3335 22.1615,38.5002 11.5,39C 7.5,41 7.5,43 11.5,45C 22.1822,45.1676 32.8489,45.6676 43.5,46.5C 31.5139,47.6659 19.5139,47.8326 7.5,47C 7,46.5 6.5,46 6,45.5C 5.33333,31.5 5.33333,17.5 6,3.5C 6.71719,2.9558 7.21719,2.28913 7.5,1.5 Z M 11.5,3.5 C 21.5,3.5 31.5,3.5 41.5,3.5C 41.5,14.5 41.5,25.5 41.5,36.5C 30.1667,36.5 18.8333,36.5 7.5,36.5C 7.33353,26.8276 7.5002,17.1609 8,7.5C 8.68972,5.64977 9.85639,4.31643 11.5,3.5 Z M 14.5,10.5 C 21.5,10.5 28.5,10.5 35.5,10.5C 35.5,11.8333 35.5,13.1667 35.5,14.5C 28.5,14.5 21.5,14.5 14.5,14.5C 14.5,13.1667 14.5,11.8333 14.5,10.5 Z"/></g>
<g><path style="opacity:0.968" fill="#fefffe" d="M 12.5,8.5 C 20.8333,8.5 29.1667,8.5 37.5,8.5C 37.5,11.1667 37.5,13.8333 37.5,16.5C 29.1667,16.5 20.8333,16.5 12.5,16.5C 12.5,13.8333 12.5,11.1667 12.5,8.5 Z M 14.5,10.5 C 14.5,11.8333 14.5,13.1667 14.5,14.5C 21.5,14.5 28.5,14.5 35.5,14.5C 35.5,13.1667 35.5,11.8333 35.5,10.5C 28.5,10.5 21.5,10.5 14.5,10.5 Z"/></g>
</svg>
