<?xml version="1.0" encoding="utf-8"?>
<svg xmlns="http://www.w3.org/2000/svg" viewBox="0 0 50 50" width="500" height="500">
  <path d="M9 3C5.699219 3 3 5.699219 3 9C3 12.300781 5.699219 15 9 15C12.300781 15 15 12.300781 15 9C15 5.699219 12.300781 3 9 3 Z M 25 3C21.699219 3 19 5.699219 19 9C19 12.300781 21.699219 15 25 15C28.300781 15 31 12.300781 31 9C31 5.699219 28.300781 3 25 3 Z M 41 3C37.699219 3 35 5.699219 35 9C35 12.300781 37.699219 15 41 15C44.300781 15 47 12.300781 47 9C47 5.699219 44.300781 3 41 3 Z M 9 5C11.222656 5 13 6.777344 13 9C13 11.222656 11.222656 13 9 13C6.777344 13 5 11.222656 5 9C5 6.777344 6.777344 5 9 5 Z M 25 5C27.222656 5 29 6.777344 29 9C29 11.222656 27.222656 13 25 13C22.777344 13 21 11.222656 21 9C21 6.777344 22.777344 5 25 5 Z M 41 5C43.222656 5 45 6.777344 45 9C45 11.222656 43.222656 13 41 13C38.777344 13 37 11.222656 37 9C37 6.777344 38.777344 5 41 5 Z M 25 19C21.699219 19 19 21.699219 19 25C19 28.300781 21.699219 31 25 31C28.300781 31 31 28.300781 31 25C31 21.699219 28.300781 19 25 19 Z M 41 19C37.699219 19 35 21.699219 35 25C35 28.300781 37.699219 31 41 31C44.300781 31 47 28.300781 47 25C47 21.699219 44.300781 19 41 19 Z M 25 21C27.222656 21 29 22.777344 29 25C29 27.222656 27.222656 29 25 29C22.777344 29 21 27.222656 21 25C21 22.777344 22.777344 21 25 21 Z M 41 21C43.222656 21 45 22.777344 45 25C45 27.222656 43.222656 29 41 29C38.777344 29 37 27.222656 37 25C37 22.777344 38.777344 21 41 21 Z M 41 35C37.699219 35 35 37.699219 35 41C35 44.300781 37.699219 47 41 47C44.300781 47 47 44.300781 47 41C47 37.699219 44.300781 35 41 35 Z M 41 37C43.222656 37 45 38.777344 45 41C45 43.222656 43.222656 45 41 45C38.777344 45 37 43.222656 37 41C37 38.777344 38.777344 37 41 37Z" fill="#FFFFFF" />
</svg>