<?xml version="1.0" encoding="UTF-8"?>
<!DOCTYPE svg PUBLIC "-//W3C//DTD SVG 1.1//EN" "http://www.w3.org/Graphics/SVG/1.1/DTD/svg11.dtd">
<svg xmlns="http://www.w3.org/2000/svg" version="1.1" width="64px" height="64px" style="shape-rendering:geometricPrecision; text-rendering:geometricPrecision; image-rendering:optimizeQuality; fill-rule:evenodd; clip-rule:evenodd" xmlns:xlink="http://www.w3.org/1999/xlink">
<g><path style="opacity:0.931" fill="#fefffe" d="M 24.5,5.5 C 47.9787,4.14483 58.812,15.1448 57,38.5C 51.3638,53.5732 40.5305,59.7398 24.5,57C 8.60365,51.3715 2.43698,40.2048 6,23.5C 9.44141,14.5567 15.6081,8.5567 24.5,5.5 Z M 17.5,25.5 C 22.4087,28.3953 27.0753,31.7286 31.5,35.5C 35.6438,32.5237 39.6438,29.357 43.5,26C 44.7248,25.4372 45.7248,25.7705 46.5,27C 41.6519,32.0151 36.6519,36.8485 31.5,41.5C 26.3481,36.8485 21.3481,32.0151 16.5,27C 17.056,26.6174 17.3893,26.1174 17.5,25.5 Z"/></g>
</svg>
