<svg xmlns="http://www.w3.org/2000/svg" viewBox="0 0 50 50">
  <path d="M25 2C12.317 2 2 12.317 2 25C2 37.683 12.317 48 25 48C37.683 48 48 37.683 48 25C48 20.44 46.660281 16.189328 44.363281 12.611328L42.994141 14.228516C44.889141 17.382516 46 21.06 46 25C46 36.579 36.579 46 25 46C13.421 46 4 36.579 4 25C4 13.421 13.421 4 25 4C30.443 4 35.393906 6.0997656 39.128906 9.5097656L40.4375 7.9648438C36.3525 4.2598437 30.935 2 25 2 z M 43.236328 7.7539062L23.914062 30.554688L15.78125 22.96875L14.417969 24.431641L24.083984 33.447266L44.763672 9.046875L43.236328 7.7539062 z" fill="#FFFFFF" />
</svg>