<?xml version="1.0" encoding="utf-8"?>
<svg xmlns="http://www.w3.org/2000/svg" viewBox="0 0 50 50" width="100" height="100">
  <path d="M1.71875 2.78125C1.253906 2.886719 0.925781 3.304688 0.9375 3.78125L0.9375 39.46875C0.9375 43.714844 3.144531 46.109375 5.3125 47.1875C7.480469 48.265625 9.625 48.21875 9.625 48.21875L40.375 48.21875L40.375 48.125C40.855469 48.179688 41.375 48.21875 41.375 48.21875C41.375 48.21875 43.296875 48.230469 45.21875 47.125C47.09375 46.046875 48.941406 43.765625 49.03125 39.8125C49.042969 39.792969 49.054688 39.769531 49.0625 39.75C49.0625 39.726563 49.0625 39.710938 49.0625 39.6875C49.066406 39.636719 49.066406 39.582031 49.0625 39.53125L49.0625 14.4375C49.0625 14.425781 49.0625 14.417969 49.0625 14.40625C49.0625 14.40625 49.078125 13.234375 48.46875 12.03125C47.859375 10.828125 46.441406 9.53125 44.21875 9.53125L44.21875 9.5L34.75 9.5L34.75 11.5L40.3125 11.5C40.191406 11.671875 40.089844 11.828125 40 12C39.390625 13.191406 39.375 14.375 39.375 14.375L39.375 38.625C39.371094 38.984375 39.558594 39.320313 39.871094 39.503906C40.183594 39.683594 40.566406 39.683594 40.878906 39.503906C41.191406 39.320313 41.378906 38.984375 41.375 38.625L41.375 14.375C41.375 14.347656 41.414063 13.625 41.78125 12.90625C42.15625 12.175781 42.683594 11.53125 44.21875 11.53125C45.75 11.53125 46.277344 12.191406 46.65625 12.9375C47.027344 13.671875 47.09375 14.410156 47.09375 14.4375L47.0625 14.4375L47.0625 39.53125C47.0625 43.089844 45.640625 44.589844 44.21875 45.40625C42.796875 46.222656 41.375 46.21875 41.375 46.21875C41.375 46.21875 39.683594 46.195313 38 45.34375C36.316406 44.492188 34.6875 42.996094 34.6875 39.46875L34.6875 3.78125C34.6875 3.230469 34.238281 2.78125 33.6875 2.78125L1.9375 2.78125C1.863281 2.773438 1.792969 2.773438 1.71875 2.78125 Z M 2.9375 4.78125L32.6875 4.78125L32.6875 39.46875C32.6875 42.757813 34.082031 44.910156 35.71875 46.21875L9.625 46.21875C9.613281 46.21875 9.605469 46.21875 9.59375 46.21875C9.59375 46.21875 9.164063 46.222656 8.53125 46.125C8.214844 46.074219 7.863281 45.992188 7.46875 45.875C7.074219 45.757813 6.636719 45.613281 6.21875 45.40625C6.007813 45.300781 5.796875 45.191406 5.59375 45.0625C4.164063 44.164063 2.9375 42.613281 2.9375 39.46875 Z M 6.9375 11C6.386719 11.078125 6 11.589844 6.078125 12.140625C6.15625 12.691406 6.667969 13.078125 7.21875 13L26.9375 13C27.296875 13.003906 27.632813 12.816406 27.816406 12.503906C27.996094 12.191406 27.996094 11.808594 27.816406 11.496094C27.632813 11.183594 27.296875 10.996094 26.9375 11L7.21875 11C7.1875 11 7.15625 11 7.125 11C7.09375 11 7.0625 11 7.03125 11C7 11 6.96875 11 6.9375 11 Z M 6.9375 15C6.386719 15.078125 6 15.589844 6.078125 16.140625C6.15625 16.691406 6.667969 17.078125 7.21875 17L26.9375 17C27.296875 17.003906 27.632813 16.816406 27.816406 16.503906C27.996094 16.191406 27.996094 15.808594 27.816406 15.496094C27.632813 15.183594 27.296875 14.996094 26.9375 15L7.21875 15C7.1875 15 7.15625 15 7.125 15C7.09375 15 7.0625 15 7.03125 15C7 15 6.96875 15 6.9375 15 Z M 7.40625 23C6.855469 23.078125 6.46875 23.589844 6.546875 24.140625C6.625 24.691406 7.136719 25.078125 7.6875 25L14.46875 25C14.828125 25.003906 15.164063 24.816406 15.347656 24.503906C15.527344 24.191406 15.527344 23.808594 15.347656 23.496094C15.164063 23.183594 14.828125 22.996094 14.46875 23L7.6875 23C7.65625 23 7.625 23 7.59375 23C7.5625 23 7.53125 23 7.5 23C7.46875 23 7.4375 23 7.40625 23 Z M 18.9375 23C18.386719 23.078125 18 23.589844 18.078125 24.140625C18.15625 24.691406 18.667969 25.078125 19.21875 25L26.9375 25C27.296875 25.003906 27.632813 24.816406 27.816406 24.503906C27.996094 24.191406 27.996094 23.808594 27.816406 23.496094C27.632813 23.183594 27.296875 22.996094 26.9375 23L19.21875 23C19.1875 23 19.15625 23 19.125 23C19.09375 23 19.0625 23 19.03125 23C19 23 18.96875 23 18.9375 23 Z M 7.40625 27C6.855469 27.078125 6.46875 27.589844 6.546875 28.140625C6.625 28.691406 7.136719 29.078125 7.6875 29L14.46875 29C14.828125 29.003906 15.164063 28.816406 15.347656 28.503906C15.527344 28.191406 15.527344 27.808594 15.347656 27.496094C15.164063 27.183594 14.828125 26.996094 14.46875 27L7.6875 27C7.65625 27 7.625 27 7.59375 27C7.5625 27 7.53125 27 7.5 27C7.46875 27 7.4375 27 7.40625 27 Z M 18.9375 27C18.386719 27.078125 18 27.589844 18.078125 28.140625C18.15625 28.691406 18.667969 29.078125 19.21875 29L26.9375 29C27.296875 29.003906 27.632813 28.816406 27.816406 28.503906C27.996094 28.191406 27.996094 27.808594 27.816406 27.496094C27.632813 27.183594 27.296875 26.996094 26.9375 27L19.21875 27C19.1875 27 19.15625 27 19.125 27C19.09375 27 19.0625 27 19.03125 27C19 27 18.96875 27 18.9375 27 Z M 18.9375 30.78125C18.386719 30.859375 18 31.371094 18.078125 31.921875C18.15625 32.472656 18.667969 32.859375 19.21875 32.78125L26.9375 32.78125C27.296875 32.785156 27.632813 32.597656 27.816406 32.285156C27.996094 31.972656 27.996094 31.589844 27.816406 31.277344C27.632813 30.964844 27.296875 30.777344 26.9375 30.78125L19.21875 30.78125C19.15625 30.773438 19.09375 30.773438 19.03125 30.78125C19 30.78125 18.96875 30.78125 18.9375 30.78125 Z M 7.40625 31C6.855469 31.078125 6.46875 31.589844 6.546875 32.140625C6.625 32.691406 7.136719 33.078125 7.6875 33L14.46875 33C14.828125 33.003906 15.164063 32.816406 15.347656 32.503906C15.527344 32.191406 15.527344 31.808594 15.347656 31.496094C15.164063 31.183594 14.828125 30.996094 14.46875 31L7.6875 31C7.65625 31 7.625 31 7.59375 31C7.5625 31 7.53125 31 7.5 31C7.46875 31 7.4375 31 7.40625 31 Z M 18.9375 34.78125C18.386719 34.859375 18 35.371094 18.078125 35.921875C18.15625 36.472656 18.667969 36.859375 19.21875 36.78125L26.9375 36.78125C27.296875 36.785156 27.632813 36.597656 27.816406 36.285156C27.996094 35.972656 27.996094 35.589844 27.816406 35.277344C27.632813 34.964844 27.296875 34.777344 26.9375 34.78125L19.21875 34.78125C19.15625 34.773438 19.09375 34.773438 19.03125 34.78125C19 34.78125 18.96875 34.78125 18.9375 34.78125 Z M 7.40625 35C6.855469 35.078125 6.46875 35.589844 6.546875 36.140625C6.625 36.691406 7.136719 37.078125 7.6875 37L14.46875 37C14.828125 37.003906 15.164063 36.816406 15.347656 36.503906C15.527344 36.191406 15.527344 35.808594 15.347656 35.496094C15.164063 35.183594 14.828125 34.996094 14.46875 35L7.6875 35C7.65625 35 7.625 35 7.59375 35C7.5625 35 7.53125 35 7.5 35C7.46875 35 7.4375 35 7.40625 35 Z M 18.9375 38.53125C18.386719 38.609375 18 39.121094 18.078125 39.671875C18.15625 40.222656 18.667969 40.609375 19.21875 40.53125L26.9375 40.53125C27.296875 40.535156 27.632813 40.347656 27.816406 40.035156C27.996094 39.722656 27.996094 39.339844 27.816406 39.027344C27.632813 38.714844 27.296875 38.527344 26.9375 38.53125L19.21875 38.53125C19.1875 38.53125 19.15625 38.53125 19.125 38.53125C19.09375 38.53125 19.0625 38.53125 19.03125 38.53125C19 38.53125 18.96875 38.53125 18.9375 38.53125 Z M 7.40625 39C6.855469 39.078125 6.46875 39.589844 6.546875 40.140625C6.625 40.691406 7.136719 41.078125 7.6875 41L14.46875 41C14.828125 41.003906 15.164063 40.816406 15.347656 40.503906C15.527344 40.191406 15.527344 39.808594 15.347656 39.496094C15.164063 39.183594 14.828125 38.996094 14.46875 39L7.6875 39C7.65625 39 7.625 39 7.59375 39C7.5625 39 7.53125 39 7.5 39C7.46875 39 7.4375 39 7.40625 39Z" fill="#FFFFFF" />
</svg>