<svg xmlns="http://www.w3.org/2000/svg" viewBox="0 0 80 80">
  <path d="M9 9L9 64C9 67.855469 12.144531 71 16 71L64 71C67.855469 71 71 67.855469 71 64L71 19L59 19L59 9 Z M 11 11L57 11L57 64C57 65.960938 57.824219 67.726563 59.136719 69L16 69C13.226563 69 11 66.773438 11 64 Z M 17 20L17 22L51 22L51 20 Z M 59 21L69 21L69 64C69 66.773438 66.773438 69 64 69C61.226563 69 59 66.773438 59 64L59 62C59.550781 62 60 61.550781 60 61C60 60.449219 59.550781 60 59 60L59 57C59.550781 57 60 56.550781 60 56C60 55.449219 59.550781 55 59 55L59 52C59.550781 52 60 51.550781 60 51C60 50.449219 59.550781 50 59 50L59 47C59.550781 47 60 46.550781 60 46C60 45.449219 59.550781 45 59 45L59 42C59.550781 42 60 41.550781 60 41C60 40.449219 59.550781 40 59 40L59 37C59.550781 37 60 36.550781 60 36C60 35.449219 59.550781 35 59 35L59 32C59.550781 32 60 31.550781 60 31C60 30.449219 59.550781 30 59 30 Z M 17 25L17 27L51 27L51 25 Z M 63 30C62.449219 30 62 30.449219 62 31C62 31.550781 62.449219 32 63 32C63.550781 32 64 31.550781 64 31C64 30.449219 63.550781 30 63 30 Z M 18 32C17.449219 32 17 32.449219 17 33C17 33.550781 17.449219 34 18 34C18.550781 34 19 33.550781 19 33C19 32.449219 18.550781 32 18 32 Z M 22 32C21.449219 32 21 32.449219 21 33C21 33.550781 21.449219 34 22 34C22.550781 34 23 33.550781 23 33C23 32.449219 22.550781 32 22 32 Z M 26 32C25.449219 32 25 32.449219 25 33C25 33.550781 25.449219 34 26 34C26.550781 34 27 33.550781 27 33C27 32.449219 26.550781 32 26 32 Z M 30 32C29.449219 32 29 32.449219 29 33C29 33.550781 29.449219 34 30 34C30.550781 34 31 33.550781 31 33C31 32.449219 30.550781 32 30 32 Z M 38 32C37.449219 32 37 32.449219 37 33C37 33.550781 37.449219 34 38 34C38.550781 34 39 33.550781 39 33C39 32.449219 38.550781 32 38 32 Z M 42 32C41.449219 32 41 32.449219 41 33C41 33.550781 41.449219 34 42 34C42.550781 34 43 33.550781 43 33C43 32.449219 42.550781 32 42 32 Z M 46 32C45.449219 32 45 32.449219 45 33C45 33.550781 45.449219 34 46 34C46.550781 34 47 33.550781 47 33C47 32.449219 46.550781 32 46 32 Z M 50 32C49.449219 32 49 32.449219 49 33C49 33.550781 49.449219 34 50 34C50.550781 34 51 33.550781 51 33C51 32.449219 50.550781 32 50 32 Z M 63 35C62.449219 35 62 35.449219 62 36C62 36.550781 62.449219 37 63 37C63.550781 37 64 36.550781 64 36C64 35.449219 63.550781 35 63 35 Z M 18 37C17.449219 37 17 37.449219 17 38C17 38.550781 17.449219 39 18 39C18.550781 39 19 38.550781 19 38C19 37.449219 18.550781 37 18 37 Z M 22 37C21.449219 37 21 37.449219 21 38C21 38.550781 21.449219 39 22 39C22.550781 39 23 38.550781 23 38C23 37.449219 22.550781 37 22 37 Z M 26 37C25.449219 37 25 37.449219 25 38C25 38.550781 25.449219 39 26 39C26.550781 39 27 38.550781 27 38C27 37.449219 26.550781 37 26 37 Z M 30 37C29.449219 37 29 37.449219 29 38C29 38.550781 29.449219 39 30 39C30.550781 39 31 38.550781 31 38C31 37.449219 30.550781 37 30 37 Z M 38 37C37.449219 37 37 37.449219 37 38C37 38.550781 37.449219 39 38 39C38.550781 39 39 38.550781 39 38C39 37.449219 38.550781 37 38 37 Z M 42 37C41.449219 37 41 37.449219 41 38C41 38.550781 41.449219 39 42 39C42.550781 39 43 38.550781 43 38C43 37.449219 42.550781 37 42 37 Z M 46 37C45.449219 37 45 37.449219 45 38C45 38.550781 45.449219 39 46 39C46.550781 39 47 38.550781 47 38C47 37.449219 46.550781 37 46 37 Z M 50 37C49.449219 37 49 37.449219 49 38C49 38.550781 49.449219 39 50 39C50.550781 39 51 38.550781 51 38C51 37.449219 50.550781 37 50 37 Z M 63 40C62.449219 40 62 40.449219 62 41C62 41.550781 62.449219 42 63 42C63.550781 42 64 41.550781 64 41C64 40.449219 63.550781 40 63 40 Z M 18 42C17.449219 42 17 42.449219 17 43C17 43.550781 17.449219 44 18 44C18.550781 44 19 43.550781 19 43C19 42.449219 18.550781 42 18 42 Z M 22 42C21.449219 42 21 42.449219 21 43C21 43.550781 21.449219 44 22 44C22.550781 44 23 43.550781 23 43C23 42.449219 22.550781 42 22 42 Z M 26 42C25.449219 42 25 42.449219 25 43C25 43.550781 25.449219 44 26 44C26.550781 44 27 43.550781 27 43C27 42.449219 26.550781 42 26 42 Z M 30 42C29.449219 42 29 42.449219 29 43C29 43.550781 29.449219 44 30 44C30.550781 44 31 43.550781 31 43C31 42.449219 30.550781 42 30 42 Z M 38 42C37.449219 42 37 42.449219 37 43C37 43.550781 37.449219 44 38 44C38.550781 44 39 43.550781 39 43C39 42.449219 38.550781 42 38 42 Z M 42 42C41.449219 42 41 42.449219 41 43C41 43.550781 41.449219 44 42 44C42.550781 44 43 43.550781 43 43C43 42.449219 42.550781 42 42 42 Z M 46 42C45.449219 42 45 42.449219 45 43C45 43.550781 45.449219 44 46 44C46.550781 44 47 43.550781 47 43C47 42.449219 46.550781 42 46 42 Z M 50 42C49.449219 42 49 42.449219 49 43C49 43.550781 49.449219 44 50 44C50.550781 44 51 43.550781 51 43C51 42.449219 50.550781 42 50 42 Z M 63 45C62.449219 45 62 45.449219 62 46C62 46.550781 62.449219 47 63 47C63.550781 47 64 46.550781 64 46C64 45.449219 63.550781 45 63 45 Z M 18 47C17.449219 47 17 47.449219 17 48C17 48.550781 17.449219 49 18 49C18.550781 49 19 48.550781 19 48C19 47.449219 18.550781 47 18 47 Z M 22 47C21.449219 47 21 47.449219 21 48C21 48.550781 21.449219 49 22 49C22.550781 49 23 48.550781 23 48C23 47.449219 22.550781 47 22 47 Z M 26 47C25.449219 47 25 47.449219 25 48C25 48.550781 25.449219 49 26 49C26.550781 49 27 48.550781 27 48C27 47.449219 26.550781 47 26 47 Z M 30 47C29.449219 47 29 47.449219 29 48C29 48.550781 29.449219 49 30 49C30.550781 49 31 48.550781 31 48C31 47.449219 30.550781 47 30 47 Z M 38 47C37.449219 47 37 47.449219 37 48C37 48.550781 37.449219 49 38 49C38.550781 49 39 48.550781 39 48C39 47.449219 38.550781 47 38 47 Z M 42 47C41.449219 47 41 47.449219 41 48C41 48.550781 41.449219 49 42 49C42.550781 49 43 48.550781 43 48C43 47.449219 42.550781 47 42 47 Z M 46 47C45.449219 47 45 47.449219 45 48C45 48.550781 45.449219 49 46 49C46.550781 49 47 48.550781 47 48C47 47.449219 46.550781 47 46 47 Z M 50 47C49.449219 47 49 47.449219 49 48C49 48.550781 49.449219 49 50 49C50.550781 49 51 48.550781 51 48C51 47.449219 50.550781 47 50 47 Z M 63 50C62.449219 50 62 50.449219 62 51C62 51.550781 62.449219 52 63 52C63.550781 52 64 51.550781 64 51C64 50.449219 63.550781 50 63 50 Z M 18 52C17.449219 52 17 52.449219 17 53C17 53.550781 17.449219 54 18 54C18.550781 54 19 53.550781 19 53C19 52.449219 18.550781 52 18 52 Z M 22 52C21.449219 52 21 52.449219 21 53C21 53.550781 21.449219 54 22 54C22.550781 54 23 53.550781 23 53C23 52.449219 22.550781 52 22 52 Z M 26 52C25.449219 52 25 52.449219 25 53C25 53.550781 25.449219 54 26 54C26.550781 54 27 53.550781 27 53C27 52.449219 26.550781 52 26 52 Z M 30 52C29.449219 52 29 52.449219 29 53C29 53.550781 29.449219 54 30 54C30.550781 54 31 53.550781 31 53C31 52.449219 30.550781 52 30 52 Z M 38 52C37.449219 52 37 52.449219 37 53C37 53.550781 37.449219 54 38 54C38.550781 54 39 53.550781 39 53C39 52.449219 38.550781 52 38 52 Z M 42 52C41.449219 52 41 52.449219 41 53C41 53.550781 41.449219 54 42 54C42.550781 54 43 53.550781 43 53C43 52.449219 42.550781 52 42 52 Z M 46 52C45.449219 52 45 52.449219 45 53C45 53.550781 45.449219 54 46 54C46.550781 54 47 53.550781 47 53C47 52.449219 46.550781 52 46 52 Z M 50 52C49.449219 52 49 52.449219 49 53C49 53.550781 49.449219 54 50 54C50.550781 54 51 53.550781 51 53C51 52.449219 50.550781 52 50 52 Z M 63 55C62.449219 55 62 55.449219 62 56C62 56.550781 62.449219 57 63 57C63.550781 57 64 56.550781 64 56C64 55.449219 63.550781 55 63 55 Z M 18 57C17.449219 57 17 57.449219 17 58C17 58.550781 17.449219 59 18 59C18.550781 59 19 58.550781 19 58C19 57.449219 18.550781 57 18 57 Z M 22 57C21.449219 57 21 57.449219 21 58C21 58.550781 21.449219 59 22 59C22.550781 59 23 58.550781 23 58C23 57.449219 22.550781 57 22 57 Z M 26 57C25.449219 57 25 57.449219 25 58C25 58.550781 25.449219 59 26 59C26.550781 59 27 58.550781 27 58C27 57.449219 26.550781 57 26 57 Z M 30 57C29.449219 57 29 57.449219 29 58C29 58.550781 29.449219 59 30 59C30.550781 59 31 58.550781 31 58C31 57.449219 30.550781 57 30 57 Z M 38 57C37.449219 57 37 57.449219 37 58C37 58.550781 37.449219 59 38 59C38.550781 59 39 58.550781 39 58C39 57.449219 38.550781 57 38 57 Z M 42 57C41.449219 57 41 57.449219 41 58C41 58.550781 41.449219 59 42 59C42.550781 59 43 58.550781 43 58C43 57.449219 42.550781 57 42 57 Z M 46 57C45.449219 57 45 57.449219 45 58C45 58.550781 45.449219 59 46 59C46.550781 59 47 58.550781 47 58C47 57.449219 46.550781 57 46 57 Z M 50 57C49.449219 57 49 57.449219 49 58C49 58.550781 49.449219 59 50 59C50.550781 59 51 58.550781 51 58C51 57.449219 50.550781 57 50 57 Z M 63 60C62.449219 60 62 60.449219 62 61C62 61.550781 62.449219 62 63 62C63.550781 62 64 61.550781 64 61C64 60.449219 63.550781 60 63 60 Z M 18 62C17.449219 62 17 62.449219 17 63C17 63.550781 17.449219 64 18 64C18.550781 64 19 63.550781 19 63C19 62.449219 18.550781 62 18 62 Z M 22 62C21.449219 62 21 62.449219 21 63C21 63.550781 21.449219 64 22 64C22.550781 64 23 63.550781 23 63C23 62.449219 22.550781 62 22 62 Z M 26 62C25.449219 62 25 62.449219 25 63C25 63.550781 25.449219 64 26 64C26.550781 64 27 63.550781 27 63C27 62.449219 26.550781 62 26 62 Z M 30 62C29.449219 62 29 62.449219 29 63C29 63.550781 29.449219 64 30 64C30.550781 64 31 63.550781 31 63C31 62.449219 30.550781 62 30 62 Z M 38 62C37.449219 62 37 62.449219 37 63C37 63.550781 37.449219 64 38 64C38.550781 64 39 63.550781 39 63C39 62.449219 38.550781 62 38 62 Z M 42 62C41.449219 62 41 62.449219 41 63C41 63.550781 41.449219 64 42 64C42.550781 64 43 63.550781 43 63C43 62.449219 42.550781 62 42 62 Z M 46 62C45.449219 62 45 62.449219 45 63C45 63.550781 45.449219 64 46 64C46.550781 64 47 63.550781 47 63C47 62.449219 46.550781 62 46 62 Z M 50 62C49.449219 62 49 62.449219 49 63C49 63.550781 49.449219 64 50 64C50.550781 64 51 63.550781 51 63C51 62.449219 50.550781 62 50 62Z" fill="#FFFFFF" />
</svg>