<svg xmlns="http://www.w3.org/2000/svg" viewBox="0 0 30 30">
  <path d="M4 2C3.448 2 3 2.448 3 3L3 24C3 26.209 4.791 28 7 28L22 28L23 28L24 28C26.209 28 28 26.209 28 24L28 10C28 9.448 27.552 9 27 9L25 9L25 24C25 24.553 24.552 25 24 25C23.448 25 23 24.553 23 24L23 3C23 2.448 22.552 2 22 2L4 2 z M 6 6L20 6L20 9L6 9L6 6 z M 6 13L12 13L12 15L6 15L6 13 z M 14 13L20 13L20 15L14 15L14 13 z M 6 17L12 17L12 19L6 19L6 17 z M 14 17L20 17L20 19L14 19L14 17 z M 6 21L12 21L12 23L6 23L6 21 z M 14 21L20 21L20 23L14 23L14 21 z" fill="#FFFFFF" />
</svg>