<?xml version="1.0" encoding="utf-8"?>
<svg xmlns="http://www.w3.org/2000/svg" viewBox="0 0 16 16" width="32" height="32">
  <path d="M7.5 1.035156C3.917969 1.035156 1 3.941406 1 7.515625L1 8L2 8L2 7.515625C2 4.484375 4.457031 2.035156 7.5 2.035156C9.132813 2.035156 10.589844 2.75 11.59375 3.875L10.464844 5L14 5L14 1.476563L12.300781 3.167969C11.113281 1.863281 9.40625 1.035156 7.5 1.035156 Z M 13 7L13 7.5C13 10.542969 10.542969 13 7.5 13C5.859375 13 4.402344 12.277344 3.394531 11.140625L4.535156 10L1 10L1 13.535156L2.6875 11.847656C3.878906 13.164063 5.589844 14 7.5 14C11.085938 14 14 11.085938 14 7.5L14 7Z" fill="#FFFFFF" />
</svg>