<svg xmlns="http://www.w3.org/2000/svg" viewBox="0 0 64 64">
  <path d="M31 2C15.007813 2 2 15.007813 2 31C2 46.992188 15.007813 60 31 60C46.992188 60 60 46.992188 60 31C60 15.007813 46.992188 2 31 2 Z M 31 4C45.886719 4 58 16.113281 58 31C58 45.886719 45.886719 58 31 58C16.113281 58 4 45.886719 4 31C4 16.113281 16.113281 4 31 4 Z M 31 8C18.316406 8 8 18.316406 8 31C8 43.683594 18.316406 54 31 54C43.683594 54 54 43.683594 54 31C54 23.894531 50.792969 17.300781 45.199219 12.90625C44.765625 12.566406 44.136719 12.636719 43.796875 13.074219C43.457031 13.507813 43.53125 14.136719 43.964844 14.480469C49.070313 18.492188 52 24.515625 52 31C52 42.578125 42.578125 52 31 52C19.421875 52 10 42.578125 10 31C10 19.421875 19.421875 10 31 10C32.027344 10 33.058594 10.074219 34.0625 10.222656C34.613281 10.304688 35.121094 9.925781 35.199219 9.378906C35.277344 8.832031 34.902344 8.324219 34.355469 8.242188C33.253906 8.082031 32.125 8 31 8 Z M 38.53125 9.34375C38.144531 9.363281 37.785156 9.609375 37.640625 10C37.453125 10.515625 37.71875 11.089844 38.238281 11.28125C39.019531 11.566406 39.796875 11.910156 40.546875 12.292969C40.695313 12.367188 40.851563 12.402344 41.003906 12.402344C41.367188 12.402344 41.71875 12.203125 41.894531 11.855469C42.144531 11.363281 41.949219 10.761719 41.457031 10.511719C40.636719 10.089844 39.785156 9.71875 38.925781 9.402344C38.796875 9.355469 38.664063 9.335938 38.53125 9.34375 Z M 31 18C29.894531 18 29 18.894531 29 20C29 21.105469 29.894531 22 31 22C32.105469 22 33 21.105469 33 20C33 18.894531 32.105469 18 31 18 Z M 29.039063 24C28.558594 24 28.078125 24.398438 28.078125 25C28.078125 25.601563 28.4375 26 29.039063 26L30 26L30 40L28.039063 40C27.558594 40 27.078125 40.398438 27.078125 41C27.078125 41.601563 27.4375 42 28.039063 42L34 42C34.601563 42 34.960938 41.601563 34.960938 41C34.960938 40.398438 34.601563 40 34 40L32 40L32 26L33 26C33.601563 26 33.960938 25.601563 33.960938 25C33.960938 24.398438 33.601563 24 33 24 Z M 13 30C12.449219 30 12 30.449219 12 31L12 33C12 33.550781 12.449219 34 13 34C13.550781 34 14 33.550781 14 33L14 31C14 30.449219 13.550781 30 13 30 Z M 18 30C17.449219 30 17 30.449219 17 31L17 33C17 33.550781 17.449219 34 18 34C18.550781 34 19 33.550781 19 33L19 31C19 30.449219 18.550781 30 18 30 Z M 23 30C22.449219 30 22 30.449219 22 31L22 33C22 33.550781 22.449219 34 23 34C23.550781 34 24 33.550781 24 33L24 31C24 30.449219 23.550781 30 23 30 Z M 39 30C38.449219 30 38 30.449219 38 31L38 33C38 33.550781 38.449219 34 39 34C39.550781 34 40 33.550781 40 33L40 31C40 30.449219 39.550781 30 39 30 Z M 44 30C43.449219 30 43 30.449219 43 31L43 33C43 33.550781 43.449219 34 44 34C44.550781 34 45 33.550781 45 33L45 31C45 30.449219 44.550781 30 44 30 Z M 49 30C48.449219 30 48 30.449219 48 31L48 33C48 33.550781 48.449219 34 49 34C49.550781 34 50 33.550781 50 33L50 31C50 30.449219 49.550781 30 49 30Z" fill="#FFFFFF" />
</svg>