<svg xmlns="http://www.w3.org/2000/svg" viewBox="0 0 50 50">
  <path d="M29.625 2C22.394531 2 18.871094 5.601563 17.734375 9.75C16.769531 8.769531 15.304688 8 13.167969 8C9.601563 8 6 10.085938 6 14.75C6 16.617188 7.105469 18.375 8.632813 19.308594C7.363281 20.242188 6 21.710938 6 24C6 25.527344 6.460938 26.714844 7.109375 27.621094C7.902344 27.226563 8.796875 27 9.75 27C10.582031 27 11.417969 27.136719 12.21875 27.402344C12.953125 27.136719 13.726563 27 14.5 27C15.359375 27 16.210938 27.160156 17 27.472656C17.789063 27.160156 18.640625 27 19.5 27C20.359375 27 21.210938 27.160156 22 27.472656C22.789063 27.160156 23.640625 27 24.5 27C25.359375 27 26.210938 27.160156 27 27.472656C27.789063 27.160156 28.640625 27 29.5 27C30.359375 27 31.210938 27.160156 32 27.472656C32.789063 27.160156 33.640625 27 34.5 27C35.273438 27 36.046875 27.136719 36.78125 27.402344C37.578125 27.136719 38.417969 27 39.25 27C40.5625 27 41.769531 27.429688 42.738281 28.140625C42.816406 28.054688 42.910156 27.9375 43.019531 27.777344C43.996094 26.351563 44 24.882813 44 24.25C44 21.117188 42.742188 19.292969 41.308594 18.464844C41.921875 16.59375 42 14.109375 42 13C42 6.316406 37.144531 2 29.625 2 Z M 17.5 16C18.882813 16 20 17.117188 20 18.5C20 19.882813 18.882813 21 17.5 21C16.117188 21 15 19.882813 15 18.5C15 17.117188 16.117188 16 17.5 16 Z M 33.5 16C34.882813 16 36 17.117188 36 18.5C36 19.882813 34.882813 21 33.5 21C32.117188 21 31 19.882813 31 18.5C31 17.117188 32.117188 16 33.5 16 Z M 18 17C17.449219 17 17 17.449219 17 18C17 18.550781 17.449219 19 18 19C18.550781 19 19 18.550781 19 18C19 17.449219 18.550781 17 18 17 Z M 34 17C33.449219 17 33 17.449219 33 18C33 18.550781 33.449219 19 34 19C34.550781 19 35 18.550781 35 18C35 17.449219 34.550781 17 34 17 Z M 23 21L28 21C28.550781 21 29 21.449219 29 22C29 23.65625 27.65625 25 26 25L25 25C23.34375 25 22 23.65625 22 22C22 21.449219 22.449219 21 23 21 Z M 9.75 29C7.683594 29 6 30.570313 6 32.5C6 32.589844 6.011719 32.679688 6.035156 32.765625L10.035156 47.265625C10.15625 47.699219 10.550781 48 11 48L38 48C38.449219 48 38.84375 47.699219 38.964844 47.265625L42.964844 32.765625C42.988281 32.679688 43 32.589844 43 32.5C43 30.570313 41.316406 29 39.25 29C38.332031 29 37.476563 29.222656 36.75 29.566406C36.082031 29.214844 35.316406 29 34.5 29C33.582031 29 32.71875 29.257813 32 29.695313C31.28125 29.257813 30.417969 29 29.5 29C28.582031 29 27.71875 29.257813 27 29.695313C26.28125 29.257813 25.417969 29 24.5 29C23.582031 29 22.71875 29.257813 22 29.695313C21.28125 29.257813 20.417969 29 19.5 29C18.582031 29 17.71875 29.257813 17 29.695313C16.28125 29.257813 15.417969 29 14.5 29C13.683594 29 12.917969 29.214844 12.25 29.566406C11.523438 29.222656 10.667969 29 9.75 29 Z M 9.75 31C11.066406 31 11.890625 31.5625 12.15625 31.886719L14.695313 46L11.761719 46L8.007813 32.386719C8.078125 31.621094 8.847656 31 9.75 31 Z M 19.5 31C20.703125 31 21.742188 31.761719 22 32.625C21.992188 32.625 22.46875 46 22.46875 46L18.640625 46L17.152344 32.378906C17.492188 31.625 18.414063 31 19.5 31 Z M 29.5 31C30.59375 31 31.515625 31.628906 31.855469 32.390625L30.410156 46L26.53125 46C26.53125 46 27.007813 32.625 27 32.625C27.253906 31.761719 28.289063 31 29.5 31 Z M 39.25 31C40.152344 31 40.921875 31.621094 40.996094 32.386719L37.238281 46L34.304688 46L36.839844 31.886719C37.105469 31.5625 37.933594 31 39.25 31Z" fill="#FFFFFF" />
</svg>