<svg xmlns="http://www.w3.org/2000/svg" viewBox="0 0 32 32">
  <path d="M29.390625 12.078125C29.148438 11.105469 28.234375 10.433594 27.199219 10.433594C26.105469 10.433594 24.398438 9.339844 23.546875 8.609375C23.121094 8.242188 22.574219 8 21.964844 8L10.035156 8C9.425781 8 8.878906 8.242188 8.453125 8.609375C7.601563 9.398438 5.894531 10.433594 4.800781 10.433594C3.765625 10.433594 2.914063 11.105469 2.609375 12.078125C2.0625 14.148438 2 19.808594 2 21.511719C2 22 2.183594 22.488281 2.546875 22.851563C3.277344 23.582031 5.105469 24.878906 8.757813 25C8.941406 25 9.121094 25.0625 9.242188 25.183594C9.972656 25.671875 11.738281 26.261719 16 26.261719C20.261719 26.261719 22.027344 25.671875 22.757813 25.183594C22.9375 25.0625 23.121094 25 23.242188 25C26.835938 24.878906 28.660156 23.644531 29.453125 22.851563C29.816406 22.488281 30 22 30 21.511719C30 19.871094 29.9375 14.148438 29.390625 12.078125 Z M 8 17L7 17L7 18L5 18L5 17L4 17L4 15L5 15L5 14L7 14L7 15L8 15 Z M 22 21L10 21L10 12L22 12 Z M 25 16C25.550781 16 26 16.449219 26 17C26 17.550781 25.550781 18 25 18C24.449219 18 24 17.550781 24 17C24 16.449219 24.449219 16 25 16 Z M 27 15C26.449219 15 26 14.550781 26 14C26 13.449219 26.449219 13 27 13C27.550781 13 28 13.449219 28 14C28 14.550781 27.550781 15 27 15Z" fill="#FFFFFF" />
</svg>