<?xml version="1.0" encoding="UTF-8"?>
<!DOCTYPE svg PUBLIC "-//W3C//DTD SVG 1.1//EN" "http://www.w3.org/Graphics/SVG/1.1/DTD/svg11.dtd">
<svg xmlns="http://www.w3.org/2000/svg" version="1.1" width="50px" height="50px" style="shape-rendering:geometricPrecision; text-rendering:geometricPrecision; image-rendering:optimizeQuality; fill-rule:evenodd; clip-rule:evenodd" xmlns:xlink="http://www.w3.org/1999/xlink">
<g><path style="opacity:0.678" fill="#fefffe" d="M 18.5,2.5 C 33.3367,0.826505 41.5034,7.49317 43,22.5C 43.4997,30.4931 43.6664,38.4931 43.5,46.5C 39.1539,46.6657 34.8206,46.499 30.5,46C 28.1616,44.4918 27.1616,42.3252 27.5,39.5C 25.5,39.5 23.5,39.5 21.5,39.5C 21.8384,42.3252 20.8384,44.4918 18.5,46C 14.1794,46.499 9.84611,46.6657 5.5,46.5C 5.14115,36.7761 5.64115,27.1094 7,17.5C 8.46621,10.5512 12.2995,5.55116 18.5,2.5 Z M 19.5,5.5 C 31.9801,4.80185 38.8134,10.8018 40,23.5C 40.4996,30.4921 40.6663,37.4921 40.5,44.5C 36.4836,45.1001 32.9836,44.1001 30,41.5C 29.1386,38.0064 30.4719,35.6731 34,34.5C 36.1418,30.0301 36.8085,25.3635 36,20.5C 34.9887,19.6634 33.8221,19.33 32.5,19.5C 31.5215,12.8781 30.5215,12.8781 29.5,19.5C 26.0319,7.82672 25.0319,7.82672 26.5,19.5C 22.4454,19.8242 18.4454,19.4909 14.5,18.5C 15.5202,16.5675 15.6869,14.5675 15,12.5C 11.7633,19.7433 11.7633,27.0767 15,34.5C 20.7168,37.4952 20.8835,40.6618 15.5,44C 13.1902,44.4966 10.8568,44.6633 8.5,44.5C 8.12411,35.7646 8.62411,27.0979 10,18.5C 11.4881,12.8584 14.6548,8.52507 19.5,5.5 Z M 26.5,35.5 C 26.5,34.5 26.5,33.5 26.5,32.5C 25.1667,32.5 23.8333,32.5 22.5,32.5C 22.5,33.5 22.5,34.5 22.5,35.5C 19.7194,34.5541 17.7194,32.7208 16.5,30C 18.1341,29.5065 19.8008,29.3398 21.5,29.5C 21.5,27.5 21.5,25.5 21.5,23.5C 19.8333,23.5 18.1667,23.5 16.5,23.5C 15.9969,28.5 15.6636,28.1667 15.5,22.5C 21.5,22.5 27.5,22.5 33.5,22.5C 33.3364,28.1667 33.0031,28.5 32.5,23.5C 30.8333,23.5 29.1667,23.5 27.5,23.5C 27.5,25.5 27.5,27.5 27.5,29.5C 29.1992,29.3398 30.8659,29.5065 32.5,30C 31.2806,32.7208 29.2806,34.5541 26.5,35.5 Z"/></g>
<g><path style="opacity:0.791" fill="#fefffe" d="M 26.5,35.5 C 25.1667,35.5 23.8333,35.5 22.5,35.5C 22.5,34.5 22.5,33.5 22.5,32.5C 23.8333,32.5 25.1667,32.5 26.5,32.5C 26.5,33.5 26.5,34.5 26.5,35.5 Z"/></g>
</svg>
