<svg xmlns="http://www.w3.org/2000/svg" viewBox="0 0 16 16">
  <path d="M2.488281 3.011719C1.664063 3.011719 0.988281 3.6875 0.988281 4.511719L0.988281 11.511719C0.988281 12.335938 1.664063 13.011719 2.488281 13.011719L13.488281 13.011719C14.308594 13.011719 14.988281 12.335938 14.988281 11.511719L14.988281 4.511719C14.988281 3.6875 14.3125 3.011719 13.488281 3.011719 Z M 2.488281 4.011719L13.488281 4.011719C13.769531 4.011719 13.988281 4.230469 13.988281 4.511719L13.988281 11.511719C13.988281 11.792969 13.769531 12.011719 13.488281 12.011719L2.488281 12.011719C2.207031 12.011719 1.988281 11.792969 1.988281 11.511719L1.988281 4.511719C1.988281 4.230469 2.207031 4.011719 2.488281 4.011719 Z M 6 4.992188L6 11.011719L11 8 Z M 7 6.757813L9.0625 8L7 9.242188Z" fill="#FFFFFF" />
</svg>